# xmcd
#
# Track frame offsets:
#       150
#       13807
#       24227
#       35770
#       60142
#       78689
#       90086
#       101848
#       117244
#       129205
#       154116
#       171419
#       182466
#       197254
#       209538
#       221056
#       236642
#       252781
#       263849
#       277288
#       290672
#       304869
#
# Disc length: 4192 seconds
#
# Revision: 2
# Processed by: cddbd v1.5.2PL0 Copyright (c) Steve Scherf et al.
# Submitted via: FreeDbEdit v0.1
#
DISCID=35105e16
DTITLE=Tennessee Ernie Ford - Gospel Favorites
DYEAR=1970
DGENRE=GOSPEL
TTITLE0=Who at My Door Is Standing
TTITLE1=Rock of Ages
TTITLE2=Stand by Me
TTITLE3=Softly and Tenderly
TTITLE4=My Task
TTITLE5=The Ninety and Nine
TTITLE6=The Old Rugged Cross
TTITLE7=When They Ring Those Golden Bells
TTITLE8=In the Garden
TTITLE9=Ivory Palaces
TTITLE10=What a Friend We Have in Jseus
TTITLE11=Jesus Saviour Pilot Me
TTITLE12=His Eye Is on the Sparrow
TTITLE13=Beautiful Isle of Somewhere
TTITLE14=Now the Day Is Over
TTITLE15=Nearer My God to Thee
TTITLE16=Sweet Peace the Gift of Gods Love
TTITLE17=Whispering Hope
TTITLE18=Lord, I'm Coming Home
TTITLE19=I Need Thee Every Hour
TTITLE20=Take Time to Be Holy
TTITLE21=God Be With You
EXTD=
EXTT0=
EXTT1=
EXTT2=
EXTT3=
EXTT4=
EXTT5=
EXTT6=
EXTT7=
EXTT8=
EXTT9=
EXTT10=
EXTT11=
EXTT12=
EXTT13=
EXTT14=
EXTT15=
EXTT16=
EXTT17=
EXTT18=
EXTT19=
EXTT20=
EXTT21=
PLAYORDER=
